<svg width="367" height="192" viewBox="0 0 367 192" fill="none" xmlns="http://www.w3.org/2000/svg">
<path d="M114.836 4.45134L114.819 4.4251L114.8 4.4C114.624 4.16555 114.468 3.94448 114.314 3.72655L113.497 4.30324L114.314 3.72654L114.267 3.65895C113.759 2.93843 113.225 2.18163 112.247 1.68444C111.271 1.18791 109.966 1 108 1H10C5.02944 1 1 5.02944 1 10V182C1 186.97 5.02942 191 10 191H357C361.97 191 366 186.97 366 182V29C366 24.0294 361.97 20 357 20H128.819C126.46 20 124.26 18.8124 122.966 16.8406L114.836 4.45134Z" fill="#C4B5FD" stroke="#A78BFA" stroke-width="2"/>
</svg>
